<?xml version="1.0" encoding="UTF-8" standalone="no"?><!DOCTYPE svg PUBLIC "-//W3C//DTD SVG 1.1//EN" "http://www.w3.org/Graphics/SVG/1.1/DTD/svg11.dtd"><svg width="100%" height="100%" viewBox="0 0 4267 4267" version="1.1" xmlns="http://www.w3.org/2000/svg" xmlns:xlink="http://www.w3.org/1999/xlink" xml:space="preserve" xmlns:serif="http://www.serif.com/" style="fill-rule:evenodd;clip-rule:evenodd;stroke-linejoin:round;stroke-miterlimit:2;"><g><ellipse cx="2529.824" cy="2246.008" rx="1154.138" ry="1079.333" style="fill:#ebebeb;"/><path d="M2833.853,2408.763c-42.906,10.099 -110.658,9.938 -149.076,-0.374c-149.61,-40.128 -245.308,-162.808 -245.682,-314.77c-0.107,-30.67 16.03,-111.299 23.777,-119.047c0.962,-1.015 12.931,6.732 26.556,17.098c73.149,55.837 167.083,29.495 203.203,-57.012c13.786,-33.021 10.58,-67.966 -9.832,-107.132l-18.06,-34.624l14.053,-6.626c24.045,-11.381 115.948,-12.877 155.595,-2.565c75.286,19.61 151.534,74.111 192.944,138.016c11.06,17.045 26.876,50.707 35.158,74.805c12.557,36.655 15.014,52.471 14.961,97.193c-0.053,60.165 -6.679,89.072 -33.662,146.939c-35.853,76.943 -124.551,148.007 -209.936,168.098Zm30.51,309.854c-194.494,33.93 -405.605,-34.571 -548.75,-178.09c-96.392,-96.659 -153.938,-205.073 -176.22,-331.922c-9.19,-52.203 -9.244,-168.258 -0.16,-219.072c40.876,-228.049 205.501,-417.306 427.726,-491.791l47.448,-15.869l44.509,27.464c69.195,42.692 76.034,48.089 67.752,53.379c-3.954,2.511 -13.892,4.595 -22.068,4.595c-26.502,0.16 -96.232,16.671 -137.428,32.54c-90.354,34.784 -188.937,112.956 -245.415,194.654c-92.758,134.169 -119.635,306.167 -71.706,458.289c60.218,191.021 209.722,325.029 410.681,368.095c46.112,9.885 167.831,8.442 212.34,-2.511c193.051,-47.501 349.768,-198.18 397.857,-382.629c25.38,-97.3 22.174,-205.928 -9.083,-306.274c-5.61,-18.167 -9.725,-33.449 -9.137,-33.983c3.206,-2.725 118.192,78.385 119.528,84.37c9.938,43.601 12.076,63.852 12.289,117.177c0.481,132.405 -30.937,237.988 -103.926,349.34c-92.919,141.863 -247.285,242.796 -416.238,272.238Zm946.019,160.243l10.875,1.841l-10.875,-1.841Z" style="fill:#21241e;fill-rule:nonzero;"/><path d="M3256.77,1897.042c-2.298,-1.229 -3.74,-1.817 -4.061,-1.55c-0.588,0.534 3.527,15.816 9.137,33.983c31.258,100.346 34.464,208.974 9.083,306.274c-48.089,184.448 -204.806,335.127 -397.857,382.629c-44.509,10.954 -166.228,12.396 -212.34,2.511c-200.959,-43.066 -350.463,-177.075 -410.681,-368.095c-47.929,-152.122 -21.052,-324.12 71.706,-458.289c56.478,-81.698 155.061,-159.869 245.415,-194.654c41.196,-15.869 110.925,-32.38 137.428,-32.54c8.175,0 18.114,-2.084 22.068,-4.595c5.13,-3.259 4.488,-6.572 -13.037,-18.648c7.534,4.862 13.144,8.549 15.602,10.312c6.412,4.542 36.281,23.136 66.416,41.357c79.24,47.929 215.439,135.718 313.915,202.348c39.273,26.556 100.079,67.432 147.206,98.957Zm-422.917,511.721c85.385,-20.091 174.082,-91.156 209.936,-168.098c26.983,-57.867 33.609,-86.774 33.662,-146.939c0.053,-44.723 -2.404,-60.539 -14.961,-97.193c-8.282,-24.098 -24.098,-57.76 -35.158,-74.805c-41.41,-63.905 -117.658,-118.406 -192.944,-138.016c-39.647,-10.312 -131.55,-8.816 -155.595,2.565l-14.053,6.626l13.625,26.128c-43.12,-68.019 -128.184,-80.255 -191.234,-23.564c-29.815,26.77 -43.601,56.905 -43.494,94.949c0.107,39.754 12.717,71.653 37.189,94.896c-9.725,-7 -17.205,-11.541 -17.953,-10.74c-7.748,7.748 -23.884,88.377 -23.777,119.047c0.374,151.961 96.071,274.642 245.682,314.77c38.418,10.312 106.17,10.473 149.076,0.374Zm-135.985,-541.804c5.504,23.777 3.74,46.166 -5.236,67.699c-0.855,1.977 -1.71,3.901 -2.565,5.824c9.778,-23.083 12.663,-48.463 7.801,-73.523Zm-141.596,153.084c20.571,1.55 43.814,-1.443 62.356,-8.282c-19.556,8.122 -40.876,11.007 -62.356,8.282Zm77.049,-526.469l-18.915,-11.702l0.107,-0.053l18.808,11.755Z" style="fill:#62935a;fill-rule:nonzero;"/><path d="M3256.77,1897.042c-47.127,-31.525 -107.933,-72.401 -147.206,-98.957c-98.476,-66.63 -234.675,-154.419 -313.915,-202.348c-30.136,-18.22 -60.004,-36.815 -66.416,-41.357c-2.458,-1.763 -8.068,-5.45 -15.602,-10.312c-10.9,-7.481 -28.212,-18.381 -54.715,-34.731l-25.594,-15.763l-18.808,-11.755l-0.107,0.053l-47.448,15.869c-59.363,19.877 -114.559,47.982 -164.465,82.767c46.753,-32.647 98.209,-59.524 153.458,-79.347c55.944,-20.144 57.386,-21.159 42.425,-30.937c-6.839,-4.435 -38.899,-22.014 -71.225,-39.006c-32.327,-16.991 -77.263,-41.57 -99.865,-54.554c-51.028,-29.334 -177.182,-87.308 -244.773,-112.475l-50.761,-18.862l-123.535,-2.618c-165.32,-3.42 -286.557,7.32 -445.519,39.593c-338.707,68.661 -647.653,214.638 -892.32,421.581c-50.226,42.479 -165.64,159.602 -165.64,168.045c0,2.992 -2.084,5.397 -4.649,5.397c-11.167,0 30.991,-170.556 64.707,-261.818c42.158,-114.238 104.781,-239.964 152.496,-306.167c10.152,-14.106 17.579,-26.289 16.511,-27.037c-1.069,-0.801 -25.006,-12.77 -53.112,-26.502c-102.537,-50.226 -190.54,-138.71 -240.018,-241.407c-23.724,-49.104 -39.967,-93.507 -34.25,-93.507c1.282,0 23.35,10.473 48.997,23.296c52.471,26.182 91.797,39.807 169.541,58.722c101.575,24.686 107.346,23.777 62.462,-9.992c-79.294,-59.577 -183.754,-191.021 -227.301,-285.863c-44.776,-97.567 -71.225,-201.654 -76.088,-299.114l-3.046,-61.447l13.786,26.716c19.182,37.082 43.066,73.843 80.255,123.375c146.618,195.349 371.729,318.083 679.873,370.553c70.424,12.022 222.011,24.739 351.691,29.548c372.37,13.839 520.324,26.93 699.108,62.035c143.359,28.105 249.155,62.516 374.614,121.933c268.497,127.169 541.59,358.851 810.835,687.941c76.836,93.934 101.895,127.81 195.723,264.383c41.089,59.844 80.95,115.788 88.591,124.337c7.587,8.496 13.892,18.114 13.999,21.373c0.107,3.206 25.915,22.709 57.386,43.28c68.874,44.99 183.914,156.022 221.904,214.157c69.783,106.758 102.109,201.76 108.948,320.166c6.145,107.132 -24.632,245.789 -76.729,345.44c-7.481,14.266 -14.32,25.915 -15.228,25.915c-0.908,0 -8.229,-17.419 -16.297,-38.738c-29.174,-77.21 -95.59,-180.334 -116.108,-180.334c-6.465,0 -69.462,14.106 -139.993,31.365c-70.531,17.259 -139.993,32.914 -154.419,34.731c-14.373,1.87 -28.96,5.664 -32.327,8.496c-3.366,2.778 -16.03,6.679 -28.159,8.603l-22.068,3.527l39.219,-88.056c101.521,-228.049 153.084,-433.763 166.709,-665.393c2.885,-49.799 2.244,-55.73 -6.893,-62.89c-24.793,-19.342 -297.671,-200.211 -299.435,-198.448c-1.069,1.069 0.427,14.694 3.42,30.243c3.74,19.77 5.397,52.577 5.13,87.415l0,-1.122c-0.214,-53.325 -2.351,-73.576 -12.289,-117.177c-1.229,-5.397 -94.522,-71.706 -115.467,-82.82Zm-633.707,1462.709c-228.851,30.029 -487.356,-30.884 -680.995,-160.404c-269.139,-180.067 -442.259,-456.472 -484.097,-773.005c-10.366,-78.439 -7.587,-232.965 5.717,-316.212c37.242,-233.179 146.511,-443.007 316.159,-606.991c60.272,-58.241 128.344,-112.261 177.182,-140.58c18.541,-10.74 34.998,-19.556 36.655,-19.556c1.603,0 -19.556,23.671 -47.074,52.577c-59.951,63.104 -99.972,114.719 -140.741,181.456c-74.324,121.559 -127.864,272.932 -150.038,424.146c-13.518,92.064 -8.549,264.757 10.473,364.141c55.356,289.176 230.24,556.07 462.777,706.161c132.726,85.705 253.109,133.901 395.399,158.373c63.264,10.9 231.522,9.404 299.221,-2.672c115.521,-20.625 268.978,-81.645 376.965,-150.038l31.792,-20.091l-21.373,22.388c-11.755,12.343 -39.433,37.029 -61.447,54.928c-150.733,122.2 -332.296,199.944 -526.575,225.377Zm-2081.776,430.077c-1.924,5.504 -262.566,11.541 -325.563,7.534l-35.265,-2.244l41.463,-81.271c53.058,-104.086 110.391,-249.369 147.74,-374.4c3.42,-11.541 9.778,-16.991 25.754,-22.014c137.374,-43.601 172.854,-56.638 223.775,-82.499c92.278,-46.86 175.044,-115.628 257.009,-213.516c30.617,-36.601 37.456,-42.318 41.677,-34.838c8.656,15.495 0.321,201.333 -11.595,259.147c-41.677,202.081 -154.74,380.972 -319.579,505.844c-23.991,18.167 -44.402,35.372 -45.417,38.258Zm707.07,7.694c-21.8,3.633 -370.66,3.259 -389.628,-0.427c-14.747,-2.832 -14.747,-4.435 -0.695,-54.661c21.533,-76.836 77.049,-172.533 136.894,-235.957c32.968,-34.998 34.036,-35.586 53.593,-31.365c149.397,32.38 333.898,-25.594 464.647,-146.137l24.205,-22.281l-4.007,23.991c-14.48,86.721 -61.768,205.982 -111.674,281.749c-30.724,46.593 -106.17,131.818 -136.092,153.725c-12.076,8.816 -20.945,18.755 -19.77,22.068c1.229,3.473 -6.145,7.427 -17.472,9.297Zm763.174,-7.855c0,4.221 -72.454,5.878 -254.231,5.878l-254.231,0l3.633,-17.366c11.488,-54.554 58.241,-145.977 105.315,-205.608c49.104,-62.249 152.603,-146.939 246.911,-201.974c22.976,-13.412 25.808,-14.053 22.014,-4.916c-10.793,26.235 -18.968,59.203 -24.312,98.048c-7.213,52.898 2.885,129.627 22.869,173.174l13.465,29.495l23.243,-2.885c69.355,-8.816 159.709,-53.432 220.515,-109.002c16.35,-14.961 29.762,-25.006 29.762,-22.335c0,9.992 -26.502,72.027 -43.494,101.682c-24.472,42.906 -59.15,91.69 -87.469,123.215c-13.198,14.694 -23.991,29.334 -23.991,32.594Zm-1474.732,-742.335c-19.075,14.213 -53.432,36.868 -76.248,50.387c-37.777,22.281 -41.25,23.457 -38.845,12.503c12.77,-57.921 34.945,-258.666 43.334,-392.353c2.565,-40.929 5.61,-56.425 12.343,-62.516c19.93,-18.007 69.409,-35.052 126.207,-43.44c50.226,-7.427 133.207,-25.06 178.517,-37.99l12.877,-3.687l-3.473,37.403c-15.121,162.434 -115.734,336.089 -254.712,439.694Zm523.637,-1006.558c-22.014,3.954 -62.569,7.267 -90.087,7.374l-50.066,0.16l3.633,-24.098c7.748,-51.562 47.341,-145.122 84.797,-200.318c24.098,-35.479 87.148,-99.331 124.711,-126.261c58.882,-42.212 148.328,-76.943 197.593,-76.675l20.625,0.107l-26.716,16.724c-14.694,9.19 -37.029,25.167 -49.639,35.426c-29.976,24.472 -81.805,93.613 -101.895,135.878c-17.579,36.975 -34.891,97.835 -30.884,108.361c2.992,7.748 56.478,18.327 117.551,23.243l41.998,3.42l-42.479,25.273c-47.127,27.945 -137.588,60.379 -199.142,71.386Zm56.104,1240.698c-57.333,12.503 -65.775,12.824 -68.767,2.618c-17.74,-60.325 -16.938,-184.769 1.656,-257.971c22.976,-90.461 90.835,-204.325 149.343,-250.651l22.388,-17.74l-14.266,31.365c-25.22,55.516 -35.052,83.835 -45.311,130.161c-11.435,51.509 -12.877,135.184 -3.099,181.67l6.145,29.388l32.059,-1.71c73.095,-3.954 153.404,-30.724 223.454,-74.538c18.167,-11.381 36.387,-22.709 40.502,-25.113c4.488,-2.672 2.298,4.916 -5.343,18.862c-20.197,36.708 -108.628,123.108 -159.763,156.022c-47.181,30.456 -132.833,67.538 -178.998,77.637Zm-156.557,-600.633c-24.419,7.694 -45.471,13.999 -46.753,13.999c-6.091,0 -1.603,-141.97 5.664,-180.334c15.228,-80.255 46.7,-155.595 91.049,-218.164c22.709,-32.006 93.507,-102.537 126.795,-126.207l17.098,-12.183l-10.954,18.648c-18.701,31.899 -48.997,112.902 -58.562,156.717c-10.419,47.662 -9.404,164.411 1.55,175.365c9.297,9.297 73.469,-2.939 127.062,-24.258l44.883,-17.793l-9.19,15.976c-14.908,25.861 -83.942,92.064 -122.787,117.765c-50.387,33.288 -113.757,64.012 -165.854,80.469Zm-357.462,-311.724c-5.183,1.069 -9.938,2.084 -14.373,2.992c-30.937,6.465 -44.563,9.351 -49.852,3.954c-4.221,-4.221 -3.206,-13.625 -1.496,-30.35c0.321,-3.046 0.695,-6.358 1.015,-9.885c5.397,-55.516 15.175,-93.56 41.036,-159.442c31.525,-80.362 84.37,-152.763 149.664,-205.233c31.685,-25.434 89.553,-61.768 98.369,-61.768c1.87,0 -5.984,15.014 -17.472,33.395c-43.173,69.141 -69.248,151.855 -73.469,233.285l-2.939,55.57l68.874,-3.313c37.884,-1.87 74.859,-4.809 82.232,-6.572c11.755,-2.832 10.847,-0.908 -8.015,16.243c-26.823,24.419 -81.11,60.379 -123.535,81.805c-43.173,21.8 -88.324,36.601 -150.038,49.318Zm1799.066,1402.117c-42.586,7.908 -96.712,15.709 -120.223,17.312l-42.746,2.885l37.403,-38.471c21.8,-22.442 66.79,-58.402 107.826,-86.24c51.883,-35.265 83.622,-61.768 120.864,-100.88c27.731,-29.174 51.936,-51.562 53.806,-49.745c9.992,9.992 -7.801,130.802 -27.571,187.334c-17.098,48.784 -11.702,45.952 -129.36,67.806Zm1429.581,-894.243c-5.076,-8.282 -17.312,-7.213 -20.785,1.87c-1.71,4.488 0.801,8.549 6.145,9.725c11.274,2.618 19.449,-3.847 14.64,-11.595Zm-1188.869,-162.114c-120.543,-23.564 -235.156,-82.553 -326.685,-174.35c89.285,89.499 205.02,149.824 326.685,174.35Zm688.155,-357.248c-24.312,53.646 -56.104,103.552 -94.522,148.435c16.083,-18.968 31.044,-38.899 44.669,-59.684c19.556,-29.762 36.067,-59.15 49.852,-88.751Zm-216.08,258.025c-18.327,12.717 -37.349,24.525 -57.173,35.479c-42.212,23.296 -86.453,41.143 -131.711,53.593c67.432,-19.022 131.443,-49.425 188.883,-89.072Zm266.093,-437.878c-1.069,10.473 -2.351,20.197 -3.794,28.8c-0.214,1.229 -0.427,2.458 -0.641,3.687c1.763,-10.686 3.206,-21.533 4.435,-32.487Z" style="fill:#85704f;fill-rule:nonzero;"/><path d="M2623.063,3359.751c194.28,-25.434 375.843,-103.178 526.575,-225.377c22.014,-17.9 49.692,-42.586 61.447,-54.928l21.373,-22.388l-31.792,20.091c-27.25,17.259 -57.386,34.036 -89.125,49.852c48.517,-25.167 93.667,-53.379 132.352,-83.194c140.206,-108.254 246.644,-239.003 325.349,-399.727c42.265,-86.293 71.065,-167.617 87.896,-248.46c5.824,-27.892 13.091,-59.203 16.19,-69.462c1.817,-6.038 3.901,-20.785 5.771,-38.632c-17.472,213.302 -68.661,406.78 -163.503,619.708l-39.219,88.056l22.068,-3.527c3.206,-0.481 6.412,-1.176 9.511,-1.87c-3.687,1.122 -7.481,2.191 -11.007,3.046c-16.511,3.847 -22.121,10.206 -48.089,54.875c-148.969,256.101 -336.089,437.29 -585.084,566.703c-116.75,60.699 -236.171,105.262 -369.912,137.214c24.739,-8.549 26.93,-19.342 37.082,-48.303c19.77,-56.531 37.563,-177.342 27.571,-187.334c-1.87,-1.817 -26.075,20.571 -53.806,49.745c-37.242,39.112 -68.981,65.615 -120.864,100.88c-41.036,27.838 -86.026,63.798 -107.826,86.24l-37.403,38.471l42.746,-2.885c23.51,-1.603 77.637,-9.404 120.223,-17.312c5.343,-1.015 10.473,-1.924 15.335,-2.832c-45.097,8.816 -91.85,16.404 -140.741,22.869c-19.503,2.565 -523.637,5.13 -1028.893,6.412c0.427,-0.053 0.801,-0.107 1.069,-0.16c11.328,-1.87 18.701,-5.824 17.472,-9.297c-1.176,-3.313 7.694,-13.251 19.77,-22.068c29.922,-21.907 105.369,-107.132 136.092,-153.725c49.906,-75.767 97.193,-195.028 111.674,-281.749l4.007,-23.991l-24.205,22.281c-130.749,120.543 -315.251,178.517 -464.647,146.137c-19.556,-4.221 -20.625,-3.633 -53.593,31.365c-59.844,63.424 -115.36,159.121 -136.894,235.957c-14.053,50.226 -14.053,51.829 0.695,54.661c2.458,0.481 10.419,0.908 22.495,1.282c-214.37,0.267 -404.803,0.214 -527.377,-0.321c89.766,-1.336 186.265,-4.862 187.441,-8.229c1.015,-2.885 21.426,-20.091 45.417,-38.258c164.839,-124.871 277.901,-303.763 319.579,-505.844c11.915,-57.814 20.251,-243.651 11.595,-259.147c-4.221,-7.481 -11.06,-1.763 -41.677,34.838c-81.965,97.888 -164.732,166.655 -257.009,213.516c-50.921,25.861 -86.4,38.899 -223.775,82.499c-15.976,5.023 -22.335,10.473 -25.754,22.014c-4.809,16.03 -9.938,32.433 -15.335,49.051c18.007,-60.111 37.563,-143.199 70.691,-298.259c2.778,-13.198 8.656,-52.898 12.984,-88.163c0.908,-7.427 1.817,-14.587 2.672,-21.533c-6.839,57.707 -13.732,105.849 -18.968,129.68c-2.404,10.954 1.069,9.778 38.845,-12.503c22.816,-13.518 57.173,-36.174 76.248,-50.387c138.977,-103.605 239.59,-277.26 254.712,-439.694l3.473,-37.403l-12.877,3.687c-45.311,12.931 -128.291,30.563 -178.517,37.99c-56.799,8.389 -106.277,25.434 -126.207,43.44c-6.732,6.091 -9.778,21.587 -12.343,62.516c-1.87,29.708 -4.435,62.783 -7.374,96.819c5.664,-83.354 7.053,-181.937 9.671,-405.712c4.381,-371.568 8.389,-450.969 26.823,-531.651c2.351,-10.419 4.702,-20.518 6.946,-30.296c-3.206,18.701 -3.901,30.296 -1.015,30.296c2.565,0 4.649,-2.404 4.649,-5.397c0,-8.442 115.414,-125.566 165.64,-168.045c244.667,-206.943 553.612,-352.92 892.32,-421.581c158.961,-32.273 280.199,-43.013 445.519,-39.593l123.535,2.618l50.761,18.862c19.77,7.374 44.563,17.526 71.012,29.014c-55.997,-23.617 -104.514,-41.036 -119.047,-41.036c-29.976,0 -148.435,99.705 -227.515,186.853c12.289,-14.053 25.434,-28.426 39.647,-43.44c27.518,-28.907 48.677,-52.577 47.074,-52.577c-1.656,0 -18.114,8.816 -36.655,19.556c-48.837,28.319 -116.91,82.339 -177.182,140.58c-169.648,163.984 -278.917,373.812 -316.159,606.991c-13.305,83.248 -16.083,237.774 -5.717,316.212c41.837,316.533 214.958,592.938 484.097,773.005c193.639,129.52 452.144,190.433 680.995,160.404Zm1065.066,-1185.022c-2.298,-4.488 -7.106,-11.274 -12.663,-17.419c-7.641,-8.549 -47.501,-64.493 -88.591,-124.337c-93.827,-136.573 -118.887,-170.449 -195.723,-264.383c-269.245,-329.09 -542.338,-560.772 -810.835,-687.941c-125.459,-59.417 -231.255,-93.827 -374.614,-121.933c-178.785,-35.105 -326.739,-48.196 -699.108,-62.035c-129.68,-4.809 -281.268,-17.526 -351.691,-29.548c-308.144,-52.471 -533.254,-175.205 -679.873,-370.553c-37.189,-49.532 -61.073,-86.293 -80.255,-123.375l-13.786,-26.716l3.046,61.447c2.298,46.166 9.458,93.774 21.052,141.489c-2.618,-10.366 -4.916,-20.465 -6.893,-30.136c-12.396,-60.646 -24.846,-168.739 -19.984,-173.602c1.924,-1.924 16.19,8.389 31.632,22.976c106.17,100.186 305.74,181.51 541.697,220.729c34.891,5.771 106.758,15.763 159.656,22.228c90.888,11.007 126.902,11.862 657.217,15.549c529.407,3.633 564.833,4.488 627.83,14.801c322.624,52.791 574.451,173.655 806.668,387.224c185.944,170.983 337.585,415.062 410.788,661.118c39.38,132.405 62.836,269.673 69.248,404.483c1.656,34.838 3.687,65.508 5.183,79.935Zm-1676.599,1614.938c0,-3.259 10.793,-17.9 23.991,-32.594c28.319,-31.525 62.997,-80.309 87.469,-123.215c16.991,-29.655 43.494,-91.69 43.494,-101.682c0,-2.672 -13.412,7.374 -29.762,22.335c-60.806,55.57 -151.16,100.186 -220.515,109.002l-23.243,2.885l-13.465,-29.495c-19.984,-43.547 -30.082,-120.276 -22.869,-173.174c5.343,-38.845 13.518,-71.813 24.312,-98.048c3.794,-9.137 0.962,-8.496 -22.014,4.916c-94.308,55.035 -197.806,139.725 -246.911,201.974c-47.074,59.63 -93.827,151.053 -105.315,205.608l-3.633,17.366l254.231,0c181.777,0 254.231,-1.656 254.231,-5.878Zm-951.095,-1748.893c61.554,-11.007 152.015,-43.44 199.142,-71.386l42.479,-25.273l-41.998,-3.42c-61.073,-4.916 -114.559,-15.495 -117.551,-23.243c-4.007,-10.526 13.305,-71.386 30.884,-108.361c20.091,-42.265 71.92,-111.406 101.895,-135.878c12.61,-10.259 34.945,-26.235 49.639,-35.426l26.716,-16.724l-20.625,-0.107c-49.265,-0.267 -138.71,34.464 -197.593,76.675c-37.563,26.93 -100.613,90.781 -124.711,126.261c-37.456,55.196 -77.049,148.756 -84.797,200.318l-3.633,24.098l50.066,-0.16c27.518,-0.107 68.073,-3.42 90.087,-7.374Zm56.104,1240.698c46.166,-10.099 131.818,-47.181 178.998,-77.637c51.135,-32.914 139.565,-119.314 159.763,-156.022c7.641,-13.946 9.832,-21.533 5.343,-18.862c-4.114,2.404 -22.335,13.732 -40.502,25.113c-70.05,43.814 -150.359,70.584 -223.454,74.538l-32.059,1.71l-6.145,-29.388c-9.778,-46.486 -8.335,-130.161 3.099,-181.67c10.259,-46.326 20.091,-74.645 45.311,-130.161l14.266,-31.365l-22.388,17.74c-58.508,46.326 -126.367,160.19 -149.343,250.651c-18.594,73.202 -19.396,197.646 -1.656,257.971c2.992,10.206 11.435,9.885 68.767,-2.618Zm-156.557,-600.633c52.097,-16.457 115.467,-47.181 165.854,-80.469c38.845,-25.701 107.88,-91.904 122.787,-117.765l9.19,-15.976l-44.883,17.793c-53.593,21.319 -117.765,33.555 -127.062,24.258c-10.954,-10.954 -11.969,-127.703 -1.55,-175.365c9.564,-43.814 39.861,-124.818 58.562,-156.717l10.954,-18.648l-17.098,12.183c-33.288,23.671 -104.086,94.201 -126.795,126.207c-44.349,62.569 -75.82,137.909 -91.049,218.164c-7.267,38.364 -11.755,180.334 -5.664,180.334c1.282,0 22.335,-6.305 46.753,-13.999Zm-357.462,-311.724c61.714,-12.717 106.865,-27.518 150.038,-49.318c42.425,-21.426 96.712,-57.386 123.535,-81.805c18.862,-17.152 19.77,-19.075 8.015,-16.243c-7.374,1.763 -44.349,4.702 -82.232,6.572l-68.874,3.313l2.939,-55.57c4.221,-81.431 30.296,-164.144 73.469,-233.285c11.488,-18.381 19.342,-33.395 17.472,-33.395c-8.816,0 -66.684,36.334 -98.369,61.768c-65.294,52.471 -118.139,124.871 -149.664,205.233c-25.861,65.882 -35.639,103.926 -41.036,159.442c-0.321,3.527 -0.695,6.839 -1.015,9.885c-1.71,16.724 -2.725,26.128 1.496,30.35c5.29,5.397 18.915,2.511 49.852,-3.954c4.435,-0.908 9.19,-1.924 14.373,-2.992Zm-46.272,-729.351c17.312,-53.058 35.907,-97.995 61.073,-151.481c7.748,-16.511 16.35,-33.823 25.273,-51.081c-28.159,55.837 -55.783,118.62 -77.797,178.304c-2.832,7.587 -5.664,15.709 -8.549,24.258Zm2006.33,1594.42c-14.854,-1.122 -27.838,-2.565 -38.097,-4.328c-46.7,-8.015 -91.049,-18.594 -134.222,-32.22c54.127,16.724 110.498,28.479 172.319,36.548Zm289.283,-12.663c-9.618,2.137 -19.022,4.007 -28.159,5.664c-28.853,5.13 -76.034,8.389 -125.512,9.511c54.394,-2.351 111.567,-6.946 138.871,-12.183c4.916,-0.962 9.832,-1.924 14.801,-2.992Zm-1042.09,-1650.898c-36.441,59.63 -67.485,123.749 -92.491,190.914c24.419,-65.935 54.287,-128.398 88.591,-184.502c1.282,-2.191 2.618,-4.275 3.901,-6.412Zm2132.964,831.14c-35.479,-42.425 -89.873,-95.804 -138.817,-136.68c49.104,40.822 103.231,94.041 138.817,136.68Zm-3697.73,1264.796c-7.748,16.511 -15.442,32.327 -23.083,47.288l-41.463,81.271l41.41,-81.271c7.641,-14.961 15.389,-30.83 23.136,-47.288Zm3292.499,-687.674c5.771,-1.603 13.091,-3.099 20.411,-4.061c-7,0.962 -14.32,2.458 -20.411,4.061Z" style="fill:#c4a05b;fill-rule:nonzero;"/><path d="M3612.5,2650c-4.798,-17.302 143.348,76.782 241.667,258.333l-375,83.333c0,0 138.131,-324.365 133.333,-341.667Z" style="fill:#574d3c;"/></g></svg>